<?xml version="1.0" standalone="no"?>
<!DOCTYPE svg PUBLIC "-//W3C//DTD SVG 20010904//EN"
 "http://www.w3.org/TR/2001/REC-SVG-20010904/DTD/svg10.dtd">
<svg version="1.0" xmlns="http://www.w3.org/2000/svg"
 width="338.000000pt" height="338.000000pt" viewBox="0 0 338.000000 338.000000"
 preserveAspectRatio="xMidYMid meet">
<metadata>
Created by potrace 1.14, written by Peter Selinger 2001-2017
</metadata>
<g transform="translate(0.000000,338.000000) scale(0.100000,-0.100000)"
fill="#000000" stroke="none">
<path d="M600 2430 c0 -5 -7 -10 -15 -10 -13 0 -15 -18 -13 -122 l3 -123 185
-1 c102 -1 190 -2 195 -3 10 -1 15 -930 5 -932 -3 -1 -90 -2 -195 -3 l-190 -1
-3 -133 -3 -132 521 0 520 0 0 150 c0 127 -2 150 -15 150 -8 0 -17 0 -20 0
-20 1 -127 47 -155 68 -81 58 -150 155 -180 254 -17 55 -14 182 6 241 46 138
138 237 267 285 32 12 67 22 77 22 19 0 20 8 20 150 l0 150 -505 0 c-330 0
-505 -3 -505 -10z"/>
<path d="M1732 2294 l3 -145 74 -25 c186 -63 303 -228 303 -429 0 -193 -143
-373 -330 -417 l-52 -13 0 -147 0 -148 520 0 520 0 0 130 c0 97 -3 130 -12
131 -7 1 -92 3 -188 4 -96 1 -180 3 -185 4 -12 1 -16 923 -4 931 4 3 93 5 198
5 l191 -1 0 133 0 133 -520 0 -521 0 3 -146z"/>
<path d="M570 1705 l0 -352 139 1 139 0 -1 351 -2 350 -137 1 -138 1 0 -352z"/>
<path d="M2490 1705 l0 -351 140 -1 140 0 0 352 0 351 -140 0 -140 0 0 -351z"/>
<path d="M1730 1710 c0 -356 -5 -334 72 -301 58 25 105 65 143 126 113 176 29
408 -174 480 l-41 14 0 -319z"/>
<path d="M1535 2001 c-251 -114 -251 -478 0 -592 80 -37 75 -58 75 296 0 354
5 333 -75 296z"/>
</g>
</svg>
